REM DIRINDEX 1\2,1\3,1\4,1\5
REM DIRNAME cjc004,folder01,folder02,folder03,folder04
TITLE ""
FILE "1Q_t_1649-1658.mp3" MP3
  TRACK 01 AUDIO
    TITLE "3:cjc004_5854"
    INDEX 01 00:00:00
  TRACK 02 AUDIO
    TITLE "0:"
    INDEX 01 00:01:11
  TRACK 03 AUDIO
    TITLE "4:cjc004_5855"
    INDEX 01 00:01:40
  TRACK 04 AUDIO
    TITLE "0:"
    INDEX 01 00:02:61
  TRACK 05 AUDIO
    TITLE "5:cjc004_5856"
    INDEX 01 00:03:10
  TRACK 06 AUDIO
    TITLE "0:"
    INDEX 01 00:07:47
  TRACK 07 AUDIO
    TITLE "3:cjc004_5857"
    INDEX 01 00:08:30
  TRACK 08 AUDIO
    TITLE "0:"
    INDEX 01 00:09:45
  TRACK 09 AUDIO
    TITLE "4:cjc004_5858"
    INDEX 01 00:10:04
  TRACK 10 AUDIO
    TITLE "0:"
    INDEX 01 00:11:68
  TRACK 11 AUDIO
    TITLE "5:cjc004_5859"
    INDEX 01 00:12:18
  TRACK 12 AUDIO
    TITLE "0:"
    INDEX 01 00:17:18
  TRACK 13 AUDIO
    TITLE "3:cjc004_5860"
    INDEX 01 00:17:67
  TRACK 14 AUDIO
    TITLE "0:"
    INDEX 01 00:19:07
  TRACK 15 AUDIO
    TITLE "4:cjc004_5861"
    INDEX 01 00:19:30
  TRACK 16 AUDIO
    TITLE "0:"
    INDEX 01 00:20:43
  TRACK 17 AUDIO
    TITLE "5:cjc004_5862"
    INDEX 01 00:20:69
  TRACK 18 AUDIO
    TITLE "0:"
    INDEX 01 00:25:05
  TRACK 19 AUDIO
    TITLE "3:cjc004_5863"
    INDEX 01 00:25:58
  TRACK 20 AUDIO
    TITLE "0:"
    INDEX 01 00:27:08
  TRACK 21 AUDIO
    TITLE "4:cjc004_5864"
    INDEX 01 00:27:34
  TRACK 22 AUDIO
    TITLE "0:"
    INDEX 01 00:28:57
  TRACK 23 AUDIO
    TITLE "5:cjc004_5865"
    INDEX 01 00:29:07
  TRACK 24 AUDIO
    TITLE "0:"
    INDEX 01 00:33:26
  TRACK 25 AUDIO
    TITLE "3:cjc004_5866"
    INDEX 01 00:34:04
  TRACK 26 AUDIO
    TITLE "0:"
    INDEX 01 00:35:10
  TRACK 27 AUDIO
    TITLE "4:cjc004_5867"
    INDEX 01 00:35:39
  TRACK 28 AUDIO
    TITLE "0:"
    INDEX 01 00:36:50
  TRACK 29 AUDIO
    TITLE "5:cjc004_5868"
    INDEX 01 00:37:03
  TRACK 30 AUDIO
    TITLE "0:"
    INDEX 01 00:41:20
  TRACK 31 AUDIO
    TITLE "3:cjc004_5869"
    INDEX 01 00:41:73
  TRACK 32 AUDIO
    TITLE "0:"
    INDEX 01 00:43:23
  TRACK 33 AUDIO
    TITLE "4:cjc004_5870"
    INDEX 01 00:43:50
  TRACK 34 AUDIO
    TITLE "0:"
    INDEX 01 00:44:65
  TRACK 35 AUDIO
    TITLE "5:cjc004_5871"
    INDEX 01 00:45:16
  TRACK 36 AUDIO
    TITLE "0:"
    INDEX 01 00:50:09
  TRACK 37 AUDIO
    TITLE "3:cjc004_5872"
    INDEX 01 00:50:62
  TRACK 38 AUDIO
    TITLE "0:"
    INDEX 01 00:52:24
  TRACK 39 AUDIO
    TITLE "4:cjc004_5873"
    INDEX 01 00:52:51
  TRACK 40 AUDIO
    TITLE "0:"
    INDEX 01 00:53:41
  TRACK 41 AUDIO
    TITLE "5:cjc004_5874"
    INDEX 01 00:53:64
  TRACK 42 AUDIO
    TITLE "0:"
    INDEX 01 00:59:28
  TRACK 43 AUDIO
    TITLE "3:cjc004_5875"
    INDEX 01 01:00:04
  TRACK 44 AUDIO
    TITLE "0:"
    INDEX 01 01:01:34
  TRACK 45 AUDIO
    TITLE "4:cjc004_5876"
    INDEX 01 01:01:62
  TRACK 46 AUDIO
    TITLE "0:"
    INDEX 01 01:03:04
  TRACK 47 AUDIO
    TITLE "5:cjc004_5877"
    INDEX 01 01:03:26
  TRACK 48 AUDIO
    TITLE "0:"
    INDEX 01 01:07:37
  TRACK 49 AUDIO
    TITLE "3:cjc004_5878"
    INDEX 01 01:08:05
  TRACK 50 AUDIO
    TITLE "0:"
    INDEX 01 01:09:20
  TRACK 51 AUDIO
    TITLE "4:cjc004_5879"
    INDEX 01 01:09:50
  TRACK 52 AUDIO
    TITLE "0:"
    INDEX 01 01:11:19
  TRACK 53 AUDIO
    TITLE "5:cjc004_5880"
    INDEX 01 01:11:43
  TRACK 54 AUDIO
    TITLE "0:"
    INDEX 01 01:15:50
  TRACK 55 AUDIO
    TITLE "3:cjc004_5881"
    INDEX 01 01:16:26
  TRACK 56 AUDIO
    TITLE "0:"
    INDEX 01 01:17:55
  TRACK 57 AUDIO
    TITLE "4:cjc004_5882"
    INDEX 01 01:18:07
  TRACK 58 AUDIO
    TITLE "0:"
    INDEX 01 01:19:07
  TRACK 59 AUDIO
    TITLE "5:cjc004_5883"
    INDEX 01 01:19:34
  TRACK 60 AUDIO
    TITLE "0:"
    INDEX 01 01:23:30
